<svg xmlns="http://www.w3.org/2000/svg" id="_&#x421;&#x43B;&#x43E;&#x439;_1" viewBox="0 0 3461 4629.17"><defs><style>.cls-1{fill:#fff;}</style></defs><g id="mask_template_03"><path class="cls-1" d="M564.72,1127.44c-76.11,0-149.93-14.9-219.42-44.29-67.12-28.39-127.41-69.04-179.19-120.82-51.78-51.78-92.43-112.07-120.82-179.19C15.9,713.65,1,639.83,1,563.72s14.9-149.93,44.29-219.42c28.39-67.12,69.04-127.41,120.82-179.19,51.78-51.78,112.07-92.43,179.19-120.82C414.79,14.9,488.61,0,564.72,0s149.93,14.9,219.42,44.29c67.12,28.39,127.41,69.04,179.19,120.82,51.78,51.78,92.43,112.07,120.82,179.19,29.39,69.49,44.29,143.31,44.29,219.42v563.72h-563.72Z"></path><path class="cls-1" d="M1167.64,1127.44v-563.72c0-76.11,14.9-149.93,44.29-219.42,28.39-67.12,69.04-127.41,120.82-179.19s112.07-92.43,179.19-120.82C1581.43,14.9,1655.25,0,1731.36,0s149.93,14.9,219.42,44.29c67.13,28.39,127.41,69.04,179.19,120.82,51.78,51.78,92.43,112.07,120.82,179.19,29.39,69.49,44.29,143.31,44.29,219.42s-14.9,149.93-44.29,219.42c-28.39,67.12-69.04,127.41-120.82,179.19-51.78,51.78-112.07,92.43-179.19,120.82-69.49,29.39-143.31,44.29-219.42,44.29h-563.72Z"></path><path class="cls-1" d="M1731.5,2295.76c-76.01,0-149.74-14.88-219.14-44.23-67.04-28.36-127.25-68.95-178.96-120.66-51.71-51.71-92.31-111.92-120.66-178.96-29.35-69.4-44.23-143.13-44.23-219.14v-563h563.57c75.94,0,149.59,14.87,218.92,44.19,66.97,28.33,127.12,68.88,178.78,120.54s92.22,111.81,120.54,178.78c29.32,69.33,44.19,142.98,44.19,218.92v563.57h-563Z"></path><path class="cls-1" d="M2335,2295.76V563.76c0-76.01,14.88-149.74,44.24-219.14,28.36-67.04,68.95-127.25,120.66-178.96,51.71-51.71,111.92-92.31,178.96-120.66,69.4-29.35,143.12-44.23,219.14-44.23s149.74,14.88,219.14,44.23c67.04,28.36,127.25,68.95,178.96,120.66,51.71,51.71,92.31,111.92,120.66,178.96,29.35,69.4,44.24,143.13,44.24,219.14v1169c0,76.01-14.88,149.74-44.24,219.14-28.36,67.04-68.95,127.25-120.66,178.96-51.71,51.71-111.92,92.31-178.96,120.66-69.4,29.35-143.12,44.23-219.14,44.23h-563Z"></path><path class="cls-1" d="M565,3463.76c-76.01,0-149.74-14.88-219.14-44.24-67.04-28.36-127.25-68.95-178.96-120.66-51.71-51.71-92.31-111.92-120.66-178.96-29.35-69.4-44.23-143.12-44.23-219.14v-1169c0-76.01,14.88-149.74,44.23-219.14,28.36-67.04,68.95-127.25,120.66-178.96,51.71-51.71,111.92-92.31,178.96-120.66,69.4-29.35,143.13-44.23,219.14-44.23s149.74,14.88,219.14,44.23c67.04,28.36,127.25,68.95,178.96,120.66,51.71,51.71,92.31,111.92,120.66,178.96,29.35,69.4,44.23,143.13,44.23,219.14v1732h-563Z"></path><path class="cls-1" d="M1729,3461.76c-76.01,0-149.74-14.88-219.14-44.24-67.04-28.36-127.25-68.95-178.96-120.66-51.71-51.71-92.31-111.92-120.66-178.96-29.35-69.4-44.23-143.12-44.23-219.14v-563h1732c76.01,0,149.74,14.88,219.14,44.23,67.04,28.36,127.25,68.95,178.96,120.66,51.71,51.71,92.31,111.92,120.66,178.96,29.35,69.4,44.24,143.13,44.24,219.14s-14.88,149.74-44.24,219.14c-28.36,67.04-68.95,127.25-120.66,178.96s-111.92,92.31-178.96,120.66c-69.4,29.35-143.12,44.24-219.14,44.24h-1169Z"></path><path class="cls-1" d="M2896.6,4629.17c-76.11,0-149.93-14.9-219.42-44.29-67.12-28.39-127.41-69.04-179.19-120.82s-92.43-112.07-120.82-179.19c-29.39-69.49-44.29-143.31-44.29-219.42v-563.72h563.72c76.11,0,149.93,14.9,219.42,44.29,67.12,28.39,127.41,69.04,179.19,120.82s92.43,112.07,120.82,179.19c29.39,69.49,44.29,143.31,44.29,219.42s-14.9,149.93-44.29,219.42c-28.39,67.12-69.04,127.41-120.82,179.19s-112.07,92.43-179.19,120.82c-69.49,29.39-143.31,44.29-219.42,44.29Z"></path><path class="cls-1" d="M563.72,4629.17c-76.11,0-149.93-14.9-219.42-44.29-67.12-28.39-127.41-69.04-179.19-120.82-51.78-51.78-92.43-112.07-120.82-179.19-29.39-69.49-44.29-143.31-44.29-219.42s14.9-149.93,44.29-219.42c28.39-67.12,69.04-127.41,120.82-179.19s112.07-92.43,179.19-120.82c69.49-29.39,143.31-44.29,219.42-44.29h563.72v563.72c0,76.11-14.9,149.93-44.29,219.42-28.39,67.12-69.04,127.41-120.82,179.19-51.78,51.78-112.07,92.43-179.19,120.82-69.49,29.39-143.31,44.29-219.42,44.29Z"></path><path class="cls-1" d="M1168,4628.45v-563c0-76.01,14.88-149.74,44.23-219.14,28.36-67.04,68.95-127.25,120.66-178.96,51.71-51.71,111.92-92.31,178.96-120.66,69.4-29.35,143.13-44.24,219.14-44.24h563v563.57c0,75.94-14.87,149.59-44.19,218.92-28.33,66.97-68.88,127.12-120.54,178.78s-111.81,92.22-178.78,120.54c-69.33,29.32-142.98,44.19-218.92,44.19h-563.57Z"></path></g></svg>